HIERARCHY
ROOT reference
{
  OFFSET 0 0 0
  CHANNELS 6 Xposition Yposition Zposition Zrotation Xrotation Yrotation
  JOINT Hips
  {
    OFFSET 346.547 88.4868 223.89
    CHANNELS 3 Zrotation Xrotation Yrotation
    JOINT RightUpLeg
    {
      OFFSET -9.27468 -1.51611 -0.00175448
      CHANNELS 3 Zrotation Xrotation Yrotation
      JOINT RightLeg
      {
        OFFSET -0.00464511 -41.8738 0.0184652
        CHANNELS 3 Zrotation Xrotation Yrotation
        JOINT RightFoot
        {
          OFFSET -0.626239 -42.3044 -0.171503
          CHANNELS 3 Zrotation Xrotation Yrotation
          End Site
          {
            OFFSET 0 -7.69 17.5
          }
        }
      }
    }
    JOINT LeftUpLeg
    {
      OFFSET 9.30083 -1.68454 -0.0454748
      CHANNELS 3 Zrotation Xrotation Yrotation
      JOINT LeftLeg
      {
        OFFSET 0.0692631 -41.8513 -0.097029
        CHANNELS 3 Zrotation Xrotation Yrotation
        JOINT LeftFoot
        {
          OFFSET 0.520945 -41.523 0.446349
          CHANNELS 3 Zrotation Xrotation Yrotation
          End Site
          {
            OFFSET 0 -7.69 17.5
          }
        }
      }
    }
    JOINT Spine
    {
      OFFSET 0.0770133 14.2992 0.0590021
      CHANNELS 3 Zrotation Xrotation Yrotation
      JOINT Spine1
      {
        OFFSET 0.0471461 9.71665 0.020973
        CHANNELS 3 Zrotation Xrotation Yrotation
        JOINT Spine2
        {
          OFFSET 0.051283 10.117 0.000913966
          CHANNELS 3 Zrotation Xrotation Yrotation
          JOINT Spine3
          {
            OFFSET 0.0447963 9.71088 0.00221408
            CHANNELS 3 Zrotation Xrotation Yrotation
            JOINT Neck
            {
              OFFSET 0.115655 10.3749 0.0448519
              CHANNELS 3 Zrotation Xrotation Yrotation
              JOINT Head
              {
                OFFSET 0.0937003 9.47807 0.0215077
                CHANNELS 3 Zrotation Xrotation Yrotation
                End Site
                {
                  OFFSET 0 15.95 0
                }
              }
            }
            JOINT RightShoulder
            {
              OFFSET -3.17023 6.91072 -0.0050072
              CHANNELS 3 Zrotation Xrotation Yrotation
              JOINT RightArm
              {
                OFFSET -12.7573 0.00694711 0.0313031
                CHANNELS 3 Zrotation Xrotation Yrotation
                JOINT RightForeArm
                {
                  OFFSET -26.5152 -0.0619338 -0.0331286
                  CHANNELS 3 Zrotation Xrotation Yrotation
                  JOINT RightHand
                  {
                    OFFSET -25.9971 0.0398378 -0.0269922
                    CHANNELS 3 Zrotation Xrotation Yrotation
                    JOINT RightHandThumb1
                    {
                      OFFSET -2.48905 0.190105 3.12053
                      CHANNELS 3 Zrotation Xrotation Yrotation
                      JOINT RightHandThumb2
                      {
                        OFFSET -3.68274 0 0
                        CHANNELS 3 Zrotation Xrotation Yrotation
                        JOINT RightHandThumb3
                        {
                          OFFSET -2.55832 0 0
                          CHANNELS 3 Zrotation Xrotation Yrotation
                          End Site
                          {
                            OFFSET -2.194 0 0
                          }
                        }
                      }
                    }
                    JOINT RightInHandIndex
                    {
                      OFFSET -3.22368 0.508421 1.97842
                      CHANNELS 3 Zrotation Xrotation Yrotation
                      JOINT RightHandIndex1
                      {
                        OFFSET -5.21684 -0.091368 0.999158
                        CHANNELS 3 Zrotation Xrotation Yrotation
                        JOINT RightHandIndex2
                        {
                          OFFSET -3.61937 0 0
                          CHANNELS 3 Zrotation Xrotation Yrotation
                          JOINT RightHandIndex3
                          {
                            OFFSET -2.0521 0 0
                            CHANNELS 3 Zrotation Xrotation Yrotation
                            End Site
                            {
                              OFFSET -1.805 0 0
                            }
                          }
                        }
                      }
                    }
                    JOINT RightInHandMiddle
                    {
                      OFFSET -3.38211 0.517263 0.756737
                      CHANNELS 3 Zrotation Xrotation Yrotation
                      JOINT RightHandMiddle1
                      {
                        OFFSET -5.17411 -0.084 0.313895
                        CHANNELS 3 Zrotation Xrotation Yrotation
                        JOINT RightHandMiddle2
                        {
                          OFFSET -3.94947 0 0
                          CHANNELS 3 Zrotation Xrotation Yrotation
                          JOINT RightHandMiddle3
                          {
                            OFFSET -2.47579 0 0
                            CHANNELS 3 Zrotation Xrotation Yrotation
                            End Site
                            {
                              OFFSET -1.975 0 0
                            }
                          }
                        }
                      }
                    }
                    JOINT RightInHandRing
                    {
                      OFFSET -3.36516 0.537895 -0.128947
                      CHANNELS 3 Zrotation Xrotation Yrotation
                      JOINT RightHandRing1
                      {
                        OFFSET -4.63474 -0.022105 -0.478947
                        CHANNELS 3 Zrotation Xrotation Yrotation
                        JOINT RightHandRing2
                        {
                          OFFSET -3.44238 0 0
                          CHANNELS 3 Zrotation Xrotation Yrotation
                          JOINT RightHandRing3
                          {
                            OFFSET -2.3881 0 0
                            CHANNELS 3 Zrotation Xrotation Yrotation
                            End Site
                            {
                              OFFSET -1.857 0 0
                            }
                          }
                        }
                      }
                    }
                    JOINT RightInHandPinky
                    {
                      OFFSET -3.16105 0.469368 -1.20179
                      CHANNELS 3 Zrotation Xrotation Yrotation
                      JOINT RightHandPinky1
                      {
                        OFFSET -4.14105 -0.022105 -1.09053
                        CHANNELS 3 Zrotation Xrotation Yrotation
                        JOINT RightHandPinky2
                        {
                          OFFSET -2.75653 0 0
                          CHANNELS 3 Zrotation Xrotation Yrotation
                          JOINT RightHandPinky3
                          {
                            OFFSET -1.74189 0 0
                            CHANNELS 3 Zrotation Xrotation Yrotation
                            End Site
                            {
                              OFFSET -1.645 0 0
                            }
                          }
                        }
                      }
                    }
                  }
                }
              }
            }
            JOINT LeftShoulder
            {
              OFFSET 3.25178 6.92057 -0.0384945
              CHANNELS 3 Zrotation Xrotation Yrotation
              JOINT LeftArm
              {
                OFFSET 12.8462 -0.0383255 -0.0637898
                CHANNELS 3 Zrotation Xrotation Yrotation
                JOINT LeftForeArm
                {
                  OFFSET 26.4888 -0.0608964 -0.0673835
                  CHANNELS 3 Zrotation Xrotation Yrotation
                  JOINT LeftHand
                  {
                    OFFSET 25.9932 -0.0402352 -0.0274148
                    CHANNELS 3 Zrotation Xrotation Yrotation
                    JOINT LeftHandThumb1
                    {
                      OFFSET 2.48905 0.190105 3.12053
                      CHANNELS 3 Zrotation Xrotation Yrotation
                      JOINT LeftHandThumb2
                      {
                        OFFSET 3.68274 0 0
                        CHANNELS 3 Zrotation Xrotation Yrotation
                        JOINT LeftHandThumb3
                        {
                          OFFSET 2.55832 0 0
                          CHANNELS 3 Zrotation Xrotation Yrotation
                          End Site
                          {
                            OFFSET 2.194 0 0
                          }
                        }
                      }
                    }
                    JOINT LeftInHandIndex
                    {
                      OFFSET 3.22368 0.508421 1.97842
                      CHANNELS 3 Zrotation Xrotation Yrotation
                      JOINT LeftHandIndex1
                      {
                        OFFSET 5.21684 -0.091368 0.999158
                        CHANNELS 3 Zrotation Xrotation Yrotation
                        JOINT LeftHandIndex2
                        {
                          OFFSET 3.61937 0 0
                          CHANNELS 3 Zrotation Xrotation Yrotation
                          JOINT LeftHandIndex3
                          {
                            OFFSET 2.0521 0 0
                            CHANNELS 3 Zrotation Xrotation Yrotation
                            End Site
                            {
                              OFFSET 1.805 0 0
                            }
                          }
                        }
                      }
                    }
                    JOINT LeftInHandMiddle
                    {
                      OFFSET 3.38211 0.517263 0.756737
                      CHANNELS 3 Zrotation Xrotation Yrotation
                      JOINT LeftHandMiddle1
                      {
                        OFFSET 5.17411 -0.084 0.313895
                        CHANNELS 3 Zrotation Xrotation Yrotation
                        JOINT LeftHandMiddle2
                        {
                          OFFSET 3.94947 0 0
                          CHANNELS 3 Zrotation Xrotation Yrotation
                          JOINT LeftHandMiddle3
                          {
                            OFFSET 2.47579 0 0
                            CHANNELS 3 Zrotation Xrotation Yrotation
                            End Site
                            {
                              OFFSET 1.975 0 0
                            }
                          }
                        }
                      }
                    }
                    JOINT LeftInHandRing
                    {
                      OFFSET 3.36516 0.537895 -0.128947
                      CHANNELS 3 Zrotation Xrotation Yrotation
                      JOINT LeftHandRing1
                      {
                        OFFSET 4.63474 -0.022105 -0.478947
                        CHANNELS 3 Zrotation Xrotation Yrotation
                        JOINT LeftHandRing2
                        {
                          OFFSET 3.44238 0 0
                          CHANNELS 3 Zrotation Xrotation Yrotation
                          JOINT LeftHandRing3
                          {
                            OFFSET 2.3881 0 0
                            CHANNELS 3 Zrotation Xrotation Yrotation
                            End Site
                            {
                              OFFSET 1.857 0 0
                            }
                          }
                        }
                      }
                    }
                    JOINT LeftInHandPinky
                    {
                      OFFSET 3.16105 0.469368 -1.20179
                      CHANNELS 3 Zrotation Xrotation Yrotation
                      JOINT LeftHandPinky1
                      {
                        OFFSET 4.14105 -0.022105 -1.09053
                        CHANNELS 3 Zrotation Xrotation Yrotation
                        JOINT LeftHandPinky2
                        {
                          OFFSET 2.75653 0 0
                          CHANNELS 3 Zrotation Xrotation Yrotation
                          JOINT LeftHandPinky3
                          {
                            OFFSET 1.74189 0 0
                            CHANNELS 3 Zrotation Xrotation Yrotation
                            End Site
                            {
                              OFFSET 1.645 0 0
                            }
                          }
                        }
                      }
                    }
                  }
                }
              }
            }
          }
        }
      }
    }
  }
}
MOTION
Frames: 2
Frame Time: 0.00833333
1.200000000000000000e+03 0.000000000000000000e+00 0.000000000000000000e+00 0.000000000000000000e+00 0.000000000000000000e+00 0.000000000000000000e+00 4.185863035283003342e+01 6.714051799414593624e+00 -2.815397900747891526e+02 4.708039802317669853e+01 -1.092524513432123285e+02 4.640946148816833272e+01 -9.875620153109780475e+00 3.447526458468563959e+01 4.196801514122759258e+00 3.209539699712573224e+01 -4.270284316159143856e+01 5.667085998700416383e+01 8.130279119501946639e+01 -3.087017392748487410e+01 6.083086119016306270e+01 -4.514316786143504601e+01 6.788124171181988231e+01 5.680163953612762384e+01 2.355798014053181788e+01 -4.164894188720689527e+01 8.910632770514277468e+01 -1.253555377410987148e+01 9.226343398401905205e+00 -5.328720550635781450e+01 -2.967791426011072264e+00 2.705831918120836566e+00 -1.361455181388451940e+01 -5.032386236425809400e+00 4.486589358112378356e+00 -2.077398363611889920e+01 -2.109512302442582588e+00 -3.639772620316411578e-01 7.196934666965715266e+00 -4.149079448358400590e+00 -6.679627977139926953e-01 9.906953874058260112e+01 -3.509812732790461354e+01 -4.480678608727965084e+00 7.689532834124591432e+01 9.200054804163249500e+00 2.150612283674550440e+01 -1.934688909390061795e+01 9.182375429510670983e+01 -1.295962335960094549e+02 -6.518226290741849027e+01 1.175729481841271706e+02 -9.925466344120582818e+00 1.333771625922840940e+02 4.405701477579547998e+00 -4.386604586585436039e+01 -1.469608437978292059e+01 2.818400000000000105e+01 1.072940000000000005e+01 1.915919999999999845e+01 1.223787914221453622e-14 2.502793075020492267e-15 -1.000000000000000000e+01 1.428260635107225706e-14 9.293346714195652210e-15 -1.000000000000000000e+01 -6.075363166795889578e-15 1.102982660224136941e-14 1.672393429683139935e-15 1.998179999999999978e+01 8.718970000000000331e-01 2.396399999999999864e+00 2.400000000000000000e+01 8.669944329091727480e-15 -1.473976960379015417e-15 2.000000000000000000e+01 1.724191635213127320e-14 7.534137554432142654e-15 -6.075363166795889578e-15 1.102982660224136941e-14 1.672393429683139935e-15 2.000000000000000000e+01 7.167357639709973912e-15 1.334189585618970803e-14 2.400000000000000000e+01 3.869507488253926296e-15 -1.971239116377802587e-15 2.000000000000000000e+01 -7.868145937353884234e-15 8.733635958457782840e-15 -6.075363166795889578e-15 1.102982660224136941e-14 1.672393429683139935e-15 1.997479999999999833e+01 -1.025649999999999951e+00 -2.819380000000000219e+00 2.400000000000000000e+01 -1.276383218787456592e-14 1.036239099417945426e-14 2.000000000000000000e+01 -5.453010871571028793e-15 -7.940036827886046949e-15 -6.075363166795889578e-15 1.102982660224136941e-14 1.672393429683139935e-15 1.978150000000000119e+01 -3.009479999999999933e+00 -8.305149999999999366e+00 2.400000000000000000e+01 1.791982969461207843e-15 -1.106108241216036010e-14 2.000000000000000000e+01 4.280031175480283011e-16 1.331931799760206797e-14 2.330065888653674477e+01 -3.155699948741889216e+01 -7.780464437734710259e+01 1.955911850816726982e+01 1.003816308002851372e+02 -1.916779848239539774e+02 4.885454363965025237e+01 2.849577714429867470e+01 1.204629564009742637e+02 -4.461258721515579140e+01 -2.839100194145448341e+01 1.544643482927775224e+01 -2.818400000000000105e+01 1.072940000000000005e+01 -1.915919999999999845e+01 -6.967948524671657378e-15 -7.114570080166777761e-15 1.000000000000000000e+01 4.446534873529966386e-15 3.630716448034789522e-15 1.000000000000000000e+01 -3.105718842177265681e-16 -6.361269516948925252e-15 4.933048335152113154e-15 -1.998179999999999978e+01 8.718970000000000331e-01 -2.396399999999999864e+00 -2.400000000000000000e+01 -5.830901178888486239e-16 -3.775240406103554987e-15 -2.000000000000000000e+01 5.967465611888789699e-16 -2.324123156210251281e-14 -3.105718842177265681e-16 -6.361269516948925252e-15 4.933048335152113154e-15 -2.000000000000000000e+01 -4.785004824686740347e-15 -4.251946266862158112e-15 -2.400000000000000000e+01 -3.250569008377649236e-16 2.031091715058341118e-15 -2.000000000000000000e+01 -4.180094875525044084e-15 -1.116625025291526024e-14 -3.105718842177265681e-16 -6.361269516948925252e-15 4.933048335152113154e-15 -1.997479999999999833e+01 -1.025649999999999951e+00 2.819380000000000219e+00 -2.400000000000000000e+01 5.483255157702084436e-15 -7.175147240366219556e-15 -2.000000000000000000e+01 1.640788177319643044e-15 -1.487135175832628982e-14 -3.105718842177265681e-16 -6.361269516948925252e-15 4.933048335152113154e-15 -1.978150000000000119e+01 -3.009479999999999933e+00 8.305149999999999366e+00 -2.400000000000000000e+01 6.701046048362367573e-15 9.607041486372507276e-16 -2.000000000000000000e+01 5.346848809730105359e-15 -3.400736320495042392e-14
1.200000000000000000e+03 0.000000000000000000e+00 0.000000000000000000e+00 0.000000000000000000e+00 0.000000000000000000e+00 0.000000000000000000e+00 4.173648846263807144e+01 6.710151422780894492e+00 -2.805976446687659518e+02 4.691062551157058635e+01 -1.088685671354979263e+02 4.624298410806790116e+01 -9.849905000279404632e+00 3.439384328707815541e+01 4.145326650000944468e+00 3.197345648878882329e+01 -4.244867142794876003e+01 5.655077742713130107e+01 8.098766050773402014e+01 -3.082643900022094030e+01 6.055310169707337309e+01 -4.495607784381692795e+01 6.773158543126615427e+01 5.657121421362062108e+01 2.343753911991214167e+01 -4.153227487061729306e+01 8.865266138541356611e+01 -1.248690527462798805e+01 9.204098855934390144e+00 -5.302527376973063156e+01 -2.955968243054923228e+00 2.696732896868040186e+00 -1.354730361717291132e+01 -5.012283691735776259e+00 4.470235621402093074e+00 -2.067214716434244082e+01 -2.100815072183231713e+00 -3.628570531411347555e-01 7.166759360315877458e+00 -4.128799122946692712e+00 -6.759925814197389471e-01 9.864444311532390941e+01 -3.495196743535078099e+01 -4.431555708514126835e+00 7.657431647579639389e+01 9.160813160033169922e+00 2.138004909320896729e+01 -1.918831944549861035e+01 9.163016831916407057e+01 -1.291400590592071467e+02 -6.473355481330122529e+01 1.171284615085299379e+02 -9.912856074183077126e+00 1.331603940590104003e+02 4.458138609175668066e+00 -4.376573426990432836e+01 -1.459965048269718579e+01 2.818400000000000105e+01 1.072940000000000005e+01 1.915919999999999845e+01 1.226581218276563513e-14 2.501973105430310746e-15 -1.000000000000000000e+01 1.428105096707189212e-14 9.279211758519837449e-15 -1.000000000000000000e+01 -6.057232614627608290e-15 1.101191135001079482e-14 1.668505014114002391e-15 1.998179999999999978e+01 8.718970000000000331e-01 2.396399999999999864e+00 2.400000000000000000e+01 8.658030973778390333e-15 -1.426111148717704631e-15 2.000000000000000000e+01 1.723699415453804948e-14 7.571146411486226399e-15 -6.057232614627608290e-15 1.101191135001079482e-14 1.668505014114002391e-15 2.000000000000000000e+01 7.145098947883361822e-15 1.331085822305279609e-14 2.400000000000000000e+01 3.893980404345486984e-15 -1.940483185110339303e-15 2.000000000000000000e+01 -7.836865152511363113e-15 8.755665702641767106e-15 -6.057232614627608290e-15 1.101191135001079482e-14 1.668505014114002391e-15 1.997479999999999833e+01 -1.025649999999999951e+00 -2.819380000000000219e+00 2.400000000000000000e+01 -1.274820282785423152e-14 1.039448508873798260e-14 2.000000000000000000e+01 -5.448850734396762056e-15 -7.903850978502766316e-15 -6.057232614627608290e-15 1.101191135001079482e-14 1.668505014114002391e-15 1.978150000000000119e+01 -3.009479999999999933e+00 -8.305149999999999366e+00 2.400000000000000000e+01 1.809276659052908484e-15 -1.102716659770775983e-14 2.000000000000000000e+01 4.283969694567708295e-16 1.332932916821548397e-14 2.322777617369572312e+01 -3.149104333771990838e+01 -7.762719784568939474e+01 1.929004636342320111e+01 1.000119127789238291e+02 -1.912038363797486227e+02 4.872110346901282441e+01 2.826746052458386771e+01 1.197036270611269799e+02 -4.454873386049611383e+01 -2.832374188938215553e+01 1.532432430135504475e+01 -2.818400000000000105e+01 1.072940000000000005e+01 -1.915919999999999845e+01 -6.948935936798367397e-15 -7.110605118512164826e-15 1.000000000000000000e+01 4.459122976704356099e-15 3.614857814316111367e-15 1.000000000000000000e+01 -3.117792953890958187e-16 -6.357516627624461965e-15 4.924037969964799260e-15 -1.998179999999999978e+01 8.718970000000000331e-01 -2.396399999999999864e+00 -2.400000000000000000e+01 -5.956826305808088678e-16 -3.761149132283764300e-15 -2.000000000000000000e+01 5.949090354198122629e-16 -2.323613151303176097e-14 -3.117792953890958187e-16 -6.357516627624461965e-15 4.924037969964799260e-15 -2.000000000000000000e+01 -4.782947206665296275e-15 -4.270287237109451058e-15 -2.400000000000000000e+01 -3.215312325997890264e-16 2.021439792242170284e-15 -2.000000000000000000e+01 -4.162917457705714682e-15 -1.115516830802105771e-14 -3.117792953890958187e-16 -6.357516627624461965e-15 4.924037969964799260e-15 -1.997479999999999833e+01 -1.025649999999999951e+00 2.819380000000000219e+00 -2.400000000000000000e+01 5.502003802374619604e-15 -7.159421283490428329e-15 -2.000000000000000000e+01 1.635967780539828998e-15 -1.487230497570253723e-14 -3.117792953890958187e-16 -6.357516627624461965e-15 4.924037969964799260e-15 -1.978150000000000119e+01 -3.009479999999999933e+00 8.305149999999999366e+00 -2.400000000000000000e+01 6.690242830631849094e-15 9.562975124595490201e-16 -2.000000000000000000e+01 5.340524616815863348e-15 -3.400404147645309044e-14
